<svg id="Main_Layer" data-name="Main Layer" xmlns="http://www.w3.org/2000/svg" xmlns:xlink="http://www.w3.org/1999/xlink" viewBox="0 0 1920 1080"><defs><style>.cls-1{fill:url(#linear-gradient);}.cls-2{fill:#231f20;}</style><linearGradient id="linear-gradient" x1="178.31" y1="572.11" x2="1831.69" y2="572.11" gradientTransform="translate(-45 -97)" gradientUnits="userSpaceOnUse"><stop offset="0" stop-color="#24c178"/><stop offset="1" stop-color="#231f20"/></linearGradient></defs><title>1080p-gradient-fullslogan</title><path class="cls-1" d="M193.16,575.22a111.37,111.37,0,0,1-43.9-41.05q-15.94-26.2-15.95-59.06t15.95-59.06A111.54,111.54,0,0,1,193.16,375q28-14.85,63-14.84t63,14.84a111.54,111.54,0,0,1,43.9,41.06Q379,442.27,379,475.11t-15.95,59.06a111.37,111.37,0,0,1-43.9,41.05q-28,14.87-63,14.85T193.16,575.22Zm93.33-44.84A56.9,56.9,0,0,0,308,508.12q7.89-14.39,7.9-33t-7.9-33a56.9,56.9,0,0,0-21.48-22.26,62.13,62.13,0,0,0-60.64,0,56.83,56.83,0,0,0-21.48,22.26q-7.89,14.38-7.89,33t7.89,33a56.83,56.83,0,0,0,21.48,22.26,62.13,62.13,0,0,0,60.64,0Z"/><path class="cls-1" d="M599.12,402.93c-7.94-12.28-19.3-21.81-34.09-28.41s-32.07-9.94-52.12-9.94h-101v49.29h97.24q19.29,0,29.07,8.52c6.51,5.68,9.77,13.62,9.77,24s-3.26,18.29-9.77,23.81-16.21,8.43-29.07,8.43H411.91v107H474.4v-57.8h38.51c20.05,0,37.42-3.26,52.12-9.94s26.15-16,34.09-28.24,12-26.65,12-43.27S607.14,415.29,599.12,402.93Z"/><path class="cls-1" d="M819,412.87V364.58H641.47v48.29Zm0,85.54V450.13H641.47v48.28Zm0,87.21V537.34H641.47v48.28Z"/><path class="cls-1" d="M853.74,438.1V585.62H915V512.11Zm51.46-73.52H853.74v29.33L915,467.84l97.57,117.78h51.55V556.3l-61.32-74Zm97.57,0V438.1l61.32,74V364.58Z"/><path class="cls-1" d="M1318.63,364.57V585.65h-62.54V499.43h-85.27v86.22h-62.53V364.57h62.53v83.06h85.27V364.57Z"/><path class="cls-1" d="M1495.48,364.58h-61.57l-97.57,221h63.74l17.37-42.93,18.38-46.12,28.4-70.75,28.41,70.75,18.29,46.12,17.38,42.93h65.07Z"/><path class="cls-1" d="M1636.67,583.44q-25.28-6.63-41.06-17.69l20.53-46.11a132.66,132.66,0,0,0,34.42,15.79,130.72,130.72,0,0,0,38.53,6q36,0,36-18,0-9.46-10.26-14.06t-33-9.63q-24.94-5.36-41.69-11.53a70.12,70.12,0,0,1-28.74-19.73q-12-13.59-12-36.64a63.36,63.36,0,0,1,11.06-36.48q11-16.26,33-25.74t53.85-9.47a190.14,190.14,0,0,1,43,4.89,131.74,131.74,0,0,1,37.27,14.37l-19.27,46.43q-31.58-17.05-61.27-17-18.65,0-27.16,5.52t-8.52,14.37q0,8.85,10.1,13.27t32.53,9.15q25.27,5.38,41.85,11.53a72.36,72.36,0,0,1,28.74,19.59q12.15,13.42,12.16,36.48a62.19,62.19,0,0,1-11.06,36q-11,16.11-33.16,25.74t-53.69,9.63A204.4,204.4,0,0,1,1636.67,583.44Z"/><path class="cls-2" d="M78.61,700a28.09,28.09,0,0,1-10.94-10.57,30.87,30.87,0,0,1,0-30.18,28.14,28.14,0,0,1,10.94-10.56,33.59,33.59,0,0,1,31.17-.05,28.25,28.25,0,0,1,10.9,10.57,30.75,30.75,0,0,1,0,30.26A28.11,28.11,0,0,1,109.78,700a33.62,33.62,0,0,1-31.17,0Zm28.06-4.73a22.41,22.41,0,0,0,8.71-8.62,25.63,25.63,0,0,0,0-24.62,22.48,22.48,0,0,0-8.71-8.62,25,25,0,0,0-12.43-3.11,25.28,25.28,0,0,0-12.48,3.11A22.66,22.66,0,0,0,73,662a25.28,25.28,0,0,0,0,24.62,22.59,22.59,0,0,0,8.78,8.62,25.18,25.18,0,0,0,12.48,3.11A24.91,24.91,0,0,0,106.67,695.27Z"/><path class="cls-2" d="M170.75,662.2a19.82,19.82,0,0,1,7.79,7.83,25.12,25.12,0,0,1,0,23.13,19.92,19.92,0,0,1-7.75,7.83,22.34,22.34,0,0,1-11.15,2.78,20.53,20.53,0,0,1-9.57-2.2,18.12,18.12,0,0,1-7-6.42v24.29h-5.88V659.75h5.64v8.62a18.11,18.11,0,0,1,7-6.63,20.63,20.63,0,0,1,9.82-2.32A22.4,22.4,0,0,1,170.75,662.2Zm-3.23,34.23a14.89,14.89,0,0,0,5.84-6,18.26,18.26,0,0,0,2.12-8.87,18,18,0,0,0-2.12-8.82,15.21,15.21,0,0,0-5.84-6,17.07,17.07,0,0,0-16.62,0,15.25,15.25,0,0,0-5.8,6,18,18,0,0,0-2.12,8.82,18.26,18.26,0,0,0,2.12,8.87,14.93,14.93,0,0,0,5.8,6,17.35,17.35,0,0,0,16.62,0Z"/><path class="cls-2" d="M231.35,683.38H194.87a15.62,15.62,0,0,0,5.23,11A17.34,17.34,0,0,0,212,698.55a18.73,18.73,0,0,0,7.46-1.45,16.32,16.32,0,0,0,5.89-4.27l3.32,3.81a18.81,18.81,0,0,1-7.26,5.31,24.61,24.61,0,0,1-9.57,1.82,24.19,24.19,0,0,1-11.9-2.86,20.58,20.58,0,0,1-8.08-7.92,22.5,22.5,0,0,1-2.9-11.44,23.32,23.32,0,0,1,2.78-11.44,20.1,20.1,0,0,1,7.62-7.87,21.28,21.28,0,0,1,10.9-2.82,21,21,0,0,1,10.86,2.82,20,20,0,0,1,7.55,7.83,23.64,23.64,0,0,1,2.73,11.48ZM199.72,668.5A15.82,15.82,0,0,0,194.87,679h30.92a15.73,15.73,0,0,0-4.85-10.48,16,16,0,0,0-21.22,0Z"/><path class="cls-2" d="M278.72,664.19q4.86,4.77,4.85,13.88v25.29h-5.88V678.65q0-6.79-3.4-10.36t-9.7-3.56q-7.05,0-11.15,4.18t-4.1,11.57v22.88h-5.89V659.75h5.64v8a16.3,16.3,0,0,1,6.67-6.17,21.31,21.31,0,0,1,9.91-2.2Q273.88,659.42,278.72,664.19Z"/><path class="cls-2" d="M326.14,701.78a22.68,22.68,0,0,1-9.16-5.47l2.4-4.73a22.77,22.77,0,0,0,8.37,5.1,30.63,30.63,0,0,0,10.78,2q7.79,0,11.69-2.86a8.81,8.81,0,0,0,3.9-7.42A7.41,7.41,0,0,0,352,682.8a14.25,14.25,0,0,0-5.18-3.19,83.57,83.57,0,0,0-8.54-2.45A89,89,0,0,1,327.84,674a17.11,17.11,0,0,1-6.68-4.68q-2.78-3.15-2.77-8.54a14.44,14.44,0,0,1,2.32-8,15.75,15.75,0,0,1,7.13-5.76,29.08,29.08,0,0,1,11.93-2.16,35.15,35.15,0,0,1,9.74,1.37,28,28,0,0,1,8.25,3.77l-2.07,4.89a29.56,29.56,0,0,0-15.92-4.81q-7.62,0-11.48,3a9.12,9.12,0,0,0-3.85,7.58,7.57,7.57,0,0,0,2.11,5.6,13.89,13.89,0,0,0,5.31,3.23q3.18,1.13,8.58,2.44A89.25,89.25,0,0,1,350.76,675a17,17,0,0,1,6.67,4.65,12.28,12.28,0,0,1,2.74,8.41,14.25,14.25,0,0,1-2.37,8,15.88,15.88,0,0,1-7.25,5.72,30.3,30.3,0,0,1-12,2.11A37.29,37.29,0,0,1,326.14,701.78Z"/><path class="cls-2" d="M378.73,700.91a20.79,20.79,0,0,1-8-7.92,24,24,0,0,1,0-22.88,20.52,20.52,0,0,1,8-7.87,24.29,24.29,0,0,1,22.72,0,20.22,20.22,0,0,1,7.91,7.87,24.31,24.31,0,0,1,0,22.88,20.48,20.48,0,0,1-7.91,7.92,24,24,0,0,1-22.72,0Zm19.69-4.48a14.71,14.71,0,0,0,5.76-6,20,20,0,0,0,0-17.74,14.77,14.77,0,0,0-5.76-6,17.5,17.5,0,0,0-16.66,0,15.06,15.06,0,0,0-5.8,6,19.62,19.62,0,0,0,0,17.74,15,15,0,0,0,5.8,6,17.43,17.43,0,0,0,16.66,0Z"/><path class="cls-2" d="M463.54,659.75v43.61H457.9v-8a16.11,16.11,0,0,1-6.38,6.17,19.15,19.15,0,0,1-9.29,2.2q-8.53,0-13.47-4.77t-4.93-14V659.75h5.89v24.7q0,6.88,3.39,10.45t9.7,3.56q6.88,0,10.86-4.18t4-11.65V659.75Z"/><path class="cls-2" d="M491.85,661.66A21,21,0,0,1,502,659.42v5.72l-1.41-.08q-6.88,0-10.78,4.23c-2.59,2.81-3.89,6.77-3.89,11.85v22.22H480V659.75h5.64v8.54A14.22,14.22,0,0,1,491.85,661.66Z"/><path class="cls-2" d="M518.7,701a20.55,20.55,0,0,1-8-7.91,24.11,24.11,0,0,1,0-22.93,20.58,20.58,0,0,1,8-7.87,23.52,23.52,0,0,1,11.57-2.82,22.32,22.32,0,0,1,10.07,2.2,16.71,16.71,0,0,1,7,6.42l-4.4,3a13.68,13.68,0,0,0-5.47-4.85,16.19,16.19,0,0,0-7.21-1.62,17.2,17.2,0,0,0-8.5,2.11,14.92,14.92,0,0,0-5.88,6,19.72,19.72,0,0,0,0,17.79,14.92,14.92,0,0,0,5.88,6,17.1,17.1,0,0,0,8.5,2.12,16.58,16.58,0,0,0,7.21-1.58,13.43,13.43,0,0,0,5.47-4.81l4.4,3a16.69,16.69,0,0,1-7.05,6.42,22.41,22.41,0,0,1-10,2.2A23.52,23.52,0,0,1,518.7,701Z"/><path class="cls-2" d="M596.09,683.38H559.61a15.62,15.62,0,0,0,5.23,11,17.34,17.34,0,0,0,11.93,4.19,18.73,18.73,0,0,0,7.46-1.45,16.32,16.32,0,0,0,5.89-4.27l3.32,3.81a18.81,18.81,0,0,1-7.26,5.31,24.61,24.61,0,0,1-9.57,1.82,24.19,24.19,0,0,1-11.9-2.86,20.58,20.58,0,0,1-8.08-7.92,22.5,22.5,0,0,1-2.9-11.44,23.32,23.32,0,0,1,2.78-11.44,20.1,20.1,0,0,1,7.62-7.87,21.31,21.31,0,0,1,10.9-2.82,21,21,0,0,1,10.86,2.82,20,20,0,0,1,7.55,7.83,23.64,23.64,0,0,1,2.73,11.48ZM564.46,668.5A15.82,15.82,0,0,0,559.61,679h30.92a15.76,15.76,0,0,0-4.84-10.48,16,16,0,0,0-21.23,0Z"/><path class="cls-2" d="M679.65,645.33v58h-6V676.58H637.29v26.78h-6.14v-58h6.14v25.86H673.6V645.33Z"/><path class="cls-2" d="M703.77,700.91a20.81,20.81,0,0,1-8-7.92,24,24,0,0,1,0-22.88,20.55,20.55,0,0,1,8-7.87,24.27,24.27,0,0,1,22.71,0,20.31,20.31,0,0,1,7.92,7.87,24.31,24.31,0,0,1,0,22.88,20.57,20.57,0,0,1-7.92,7.92,24,24,0,0,1-22.71,0Zm19.69-4.48a14.77,14.77,0,0,0,5.76-6,20,20,0,0,0,0-17.74,14.83,14.83,0,0,0-5.76-6,17.52,17.52,0,0,0-16.67,0,15.06,15.06,0,0,0-5.8,6,19.7,19.7,0,0,0,0,17.74,15,15,0,0,0,5.8,6,17.44,17.44,0,0,0,16.67,0Z"/><path class="cls-2" d="M750.81,702.24a21.9,21.9,0,0,1-7.58-3.86l2.65-4.64a22.22,22.22,0,0,0,6.88,3.52,27.38,27.38,0,0,0,8.62,1.37q6,0,8.83-1.87a5.91,5.91,0,0,0,2.86-5.26,4.73,4.73,0,0,0-1.58-3.77,10.47,10.47,0,0,0-4-2.07,56.34,56.34,0,0,0-6.39-1.37,73.34,73.34,0,0,1-8.54-2,12.63,12.63,0,0,1-5.51-3.52,9.83,9.83,0,0,1-2.28-6.89,10.79,10.79,0,0,1,4.56-9q4.56-3.48,12.68-3.48a32.79,32.79,0,0,1,8.46,1.12,23.44,23.44,0,0,1,7,2.94l-2.57,4.73A22,22,0,0,0,762,664.48c-3.75,0-6.59.66-8.49,2a6.07,6.07,0,0,0-2.86,5.22,5.18,5.18,0,0,0,1.61,4,10,10,0,0,0,4,2.2,65.24,65.24,0,0,0,6.63,1.45,74,74,0,0,1,8.37,2,12.27,12.27,0,0,1,5.39,3.39,9.39,9.39,0,0,1,2.24,6.64,10.54,10.54,0,0,1-4.77,9.07q-4.77,3.36-13.22,3.36A33.6,33.6,0,0,1,750.81,702.24Z"/><path class="cls-2" d="M812.78,700.7a11.07,11.07,0,0,1-4.11,2.28,16.37,16.37,0,0,1-5.09.79q-6.14,0-9.45-3.31t-3.32-9.37V664.73H783v-5h7.79v-9.53h5.89v9.53H810v5H796.7v26a8.22,8.22,0,0,0,1.94,5.92,7.38,7.38,0,0,0,5.6,2,10.74,10.74,0,0,0,3.52-.58,8.39,8.39,0,0,0,2.94-1.66Z"/><path class="cls-2" d="M823.39,649a4.09,4.09,0,0,1-1.25-3,4,4,0,0,1,1.25-2.9,4.16,4.16,0,0,1,3.06-1.24,4.25,4.25,0,0,1,3.07,1.2,3.84,3.84,0,0,1,1.25,2.86,4.34,4.34,0,0,1-7.38,3.07Zm.08,10.77h5.89v43.61h-5.89Z"/><path class="cls-2" d="M881,664.19q4.85,4.77,4.85,13.88v25.29H880V678.65q0-6.79-3.39-10.36t-9.7-3.56q-7,0-11.15,4.18t-4.11,11.57v22.88h-5.88V659.75h5.64v8a16.3,16.3,0,0,1,6.67-6.17,21.27,21.27,0,0,1,9.9-2.2Q876.2,659.42,881,664.19Z"/><path class="cls-2" d="M942.42,659.75v38.3q0,11.12-5.43,16.46t-16.37,5.34a36.54,36.54,0,0,1-11.48-1.78,23.67,23.67,0,0,1-8.83-4.93l3-4.48a22.49,22.49,0,0,0,7.67,4.4,28.84,28.84,0,0,0,9.49,1.57q8.28,0,12.18-3.86t3.9-12v-5.56a17.66,17.66,0,0,1-7.17,6.3,22.14,22.14,0,0,1-9.82,2.16A23.1,23.1,0,0,1,908.4,699a19.86,19.86,0,0,1-7.88-7.54,22.45,22.45,0,0,1,0-21.93,19.86,19.86,0,0,1,7.83-7.46,23.53,23.53,0,0,1,11.2-2.65,22.17,22.17,0,0,1,10,2.24,18.17,18.17,0,0,1,7.21,6.46v-8.37Zm-13.76,34.69a14.6,14.6,0,0,0,5.93-5.67,16.23,16.23,0,0,0,2.11-8.29,16,16,0,0,0-2.11-8.25,14.85,14.85,0,0,0-5.88-5.64,19.15,19.15,0,0,0-17.08,0,14.48,14.48,0,0,0-5.89,5.64,17.34,17.34,0,0,0,0,16.58,14.68,14.68,0,0,0,5.89,5.67,17.56,17.56,0,0,0,8.5,2A17.77,17.77,0,0,0,928.66,694.44Z"/><path class="cls-2" d="M1018.27,687.85H985.94l-7,15.51H972.6l26.53-58h6l26.52,58h-6.46Zm-2.23-5-13.93-31.17-13.93,31.17Z"/><path class="cls-2" d="M1078.54,659.75v43.61h-5.64v-8a16,16,0,0,1-6.38,6.17,19.14,19.14,0,0,1-9.28,2.2q-8.55,0-13.48-4.77t-4.93-14V659.75h5.89v24.7q0,6.88,3.4,10.45t9.7,3.56q6.87,0,10.86-4.18t4-11.65V659.75Z"/><path class="cls-2" d="M1118,700.7a11.07,11.07,0,0,1-4.11,2.28,16.37,16.37,0,0,1-5.09.79q-6.13,0-9.45-3.31t-3.32-9.37V664.73h-7.79v-5H1096v-9.53h5.89v9.53h13.26v5h-13.26v26a8.22,8.22,0,0,0,1.94,5.92,7.38,7.38,0,0,0,5.6,2,10.74,10.74,0,0,0,3.52-.58,8.39,8.39,0,0,0,2.94-1.66Z"/><path class="cls-2" d="M1133.58,700.91a20.88,20.88,0,0,1-8-7.92,24,24,0,0,1,0-22.88,20.61,20.61,0,0,1,8-7.87,24.27,24.27,0,0,1,22.71,0,20.25,20.25,0,0,1,7.92,7.87,24.31,24.31,0,0,1,0,22.88,20.51,20.51,0,0,1-7.92,7.92,24,24,0,0,1-22.71,0Zm19.69-4.48a14.71,14.71,0,0,0,5.76-6,20,20,0,0,0,0-17.74,14.77,14.77,0,0,0-5.76-6,17.5,17.5,0,0,0-16.66,0,15.08,15.08,0,0,0-5.81,6,19.7,19.7,0,0,0,0,17.74,15,15,0,0,0,5.81,6,17.43,17.43,0,0,0,16.66,0Z"/><path class="cls-2" d="M1246.36,664.15q4.68,4.73,4.69,13.92v25.29h-5.89V678.65q0-6.79-3.27-10.36t-9.25-3.56q-6.8,0-10.69,4.18t-3.9,11.57v22.88h-5.88V678.65q0-6.79-3.28-10.36t-9.32-3.56q-6.72,0-10.66,4.18T1185,680.48v22.88h-5.89V659.75h5.64v8a15.71,15.71,0,0,1,6.46-6.13,20.36,20.36,0,0,1,9.54-2.16,18.72,18.72,0,0,1,9.49,2.32,14.3,14.3,0,0,1,6,6.88,17,17,0,0,1,6.92-6.75,21.33,21.33,0,0,1,10.32-2.45Q1241.68,659.42,1246.36,664.15Z"/><path class="cls-2" d="M1295.39,663.69Q1300,668,1300,676.33v27h-5.63v-6.8a13.49,13.49,0,0,1-5.85,5.3,20.46,20.46,0,0,1-9.16,1.91q-7.29,0-11.6-3.48a12,12,0,0,1-.29-18.16q4-3.39,12.8-3.39h13.85v-2.66q0-5.62-3.15-8.58t-9.2-2.94a23.41,23.41,0,0,0-8,1.37,20.05,20.05,0,0,0-6.55,3.77l-2.65-4.39a23.65,23.65,0,0,1,8-4.36,31.11,31.11,0,0,1,9.79-1.53Q1290.84,659.42,1295.39,663.69Zm-6.63,33.16a13.61,13.61,0,0,0,5.31-6.59v-7.13h-13.68q-11.19,0-11.19,7.79a7.14,7.14,0,0,0,2.9,6q2.89,2.21,8.12,2.2A15.49,15.49,0,0,0,1288.76,696.85Z"/><path class="cls-2" d="M1338.91,700.7a11,11,0,0,1-4.1,2.28,16.39,16.39,0,0,1-5.1.79q-6.14,0-9.45-3.31t-3.31-9.37V664.73h-7.8v-5h7.8v-9.53h5.88v9.53h13.27v5h-13.27v26a8.22,8.22,0,0,0,2,5.92,7.37,7.37,0,0,0,5.6,2,10.74,10.74,0,0,0,3.52-.58,8.48,8.48,0,0,0,2.94-1.66Z"/><path class="cls-2" d="M1349.52,649a4.12,4.12,0,0,1-1.24-3,4,4,0,0,1,1.24-2.9,4.18,4.18,0,0,1,3.07-1.24,4.25,4.25,0,0,1,3.07,1.2,3.83,3.83,0,0,1,1.24,2.86,4.34,4.34,0,0,1-7.38,3.07Zm.09,10.77h5.88v43.61h-5.88Z"/><path class="cls-2" d="M1378.37,700.91a20.88,20.88,0,0,1-8-7.92,24,24,0,0,1,0-22.88,20.61,20.61,0,0,1,8-7.87,24.29,24.29,0,0,1,22.72,0,20.22,20.22,0,0,1,7.91,7.87,24.31,24.31,0,0,1,0,22.88,20.48,20.48,0,0,1-7.91,7.92,24,24,0,0,1-22.72,0Zm19.69-4.48a14.71,14.71,0,0,0,5.76-6,20,20,0,0,0,0-17.74,14.77,14.77,0,0,0-5.76-6,17.5,17.5,0,0,0-16.66,0,15.08,15.08,0,0,0-5.81,6,19.7,19.7,0,0,0,0,17.74,15,15,0,0,0,5.81,6,17.43,17.43,0,0,0,16.66,0Z"/><path class="cls-2" d="M1459.16,664.19Q1464,669,1464,678.07v25.29h-5.88V678.65q0-6.79-3.4-10.36t-9.7-3.56q-7.05,0-11.15,4.18t-4.1,11.57v22.88h-5.89V659.75h5.64v8a16.36,16.36,0,0,1,6.67-6.17,21.31,21.31,0,0,1,9.91-2.2Q1454.3,659.42,1459.16,664.19Z"/><path class="cls-2" d="M1506.57,701.78a22.68,22.68,0,0,1-9.16-5.47l2.4-4.73a22.73,22.73,0,0,0,8.38,5.1,30.54,30.54,0,0,0,10.77,2q7.8,0,11.69-2.86a8.81,8.81,0,0,0,3.9-7.42,7.41,7.41,0,0,0-2.12-5.55,14.17,14.17,0,0,0-5.18-3.19,83.57,83.57,0,0,0-8.54-2.45,89.57,89.57,0,0,1-10.44-3.19,17.08,17.08,0,0,1-6.67-4.68c-1.86-2.1-2.78-4.95-2.78-8.54a14.44,14.44,0,0,1,2.32-8,15.8,15.8,0,0,1,7.13-5.76,29.1,29.1,0,0,1,11.94-2.16,35.25,35.25,0,0,1,9.74,1.37,28,28,0,0,1,8.24,3.77l-2.07,4.89a29.56,29.56,0,0,0-15.91-4.81q-7.64,0-11.48,3a9.13,9.13,0,0,0-3.86,7.58,7.57,7.57,0,0,0,2.11,5.6,13.89,13.89,0,0,0,5.31,3.23q3.2,1.13,8.58,2.44a89.25,89.25,0,0,1,10.32,3.11,17,17,0,0,1,6.67,4.65q2.75,3.1,2.74,8.41a14.32,14.32,0,0,1-2.36,8,16,16,0,0,1-7.26,5.72,30.26,30.26,0,0,1-12,2.11A37.29,37.29,0,0,1,1506.57,701.78Z"/><path class="cls-2" d="M1559.17,700.91a20.81,20.81,0,0,1-8-7.92,24,24,0,0,1,0-22.88,20.55,20.55,0,0,1,8-7.87,24.27,24.27,0,0,1,22.71,0,20.31,20.31,0,0,1,7.92,7.87,24.31,24.31,0,0,1,0,22.88,20.57,20.57,0,0,1-7.92,7.92,24,24,0,0,1-22.71,0Zm19.68-4.48a14.79,14.79,0,0,0,5.77-6,20,20,0,0,0,0-17.74,14.86,14.86,0,0,0-5.77-6,17.5,17.5,0,0,0-16.66,0,15.06,15.06,0,0,0-5.8,6,19.7,19.7,0,0,0,0,17.74,15,15,0,0,0,5.8,6,17.43,17.43,0,0,0,16.66,0Z"/><path class="cls-2" d="M1613.34,648.48c-1.3,1.38-1.95,3.43-1.95,6.13v5.14h13.43v5h-13.26v38.63h-5.89V664.73h-7.79v-5h7.79v-5.39c0-4,1.15-7.13,3.44-9.45s5.54-3.48,9.74-3.48a16.47,16.47,0,0,1,4.81.71,10.77,10.77,0,0,1,3.9,2l-2,4.39a9.77,9.77,0,0,0-6.47-2.15A7.54,7.54,0,0,0,1613.34,648.48Z"/><path class="cls-2" d="M1655.74,700.7a11,11,0,0,1-4.1,2.28,16.39,16.39,0,0,1-5.1.79q-6.13,0-9.45-3.31t-3.32-9.37V664.73H1626v-5h7.79v-9.53h5.89v9.53h13.26v5h-13.26v26a8.22,8.22,0,0,0,1.95,5.92,7.35,7.35,0,0,0,5.59,2,10.8,10.8,0,0,0,3.53-.58,8.48,8.48,0,0,0,2.94-1.66Z"/><path class="cls-2" d="M1729.6,659.75l-16.5,43.61h-5.55l-13.76-35.73L1680,703.36h-5.56l-16.41-43.61h5.64l13.68,37.06,14-37.06h5l13.93,37.06,13.84-37.06Z"/><path class="cls-2" d="M1765.5,663.69c3,2.85,4.56,7.06,4.56,12.64v27h-5.64v-6.8a13.49,13.49,0,0,1-5.85,5.3,20.46,20.46,0,0,1-9.16,1.91q-7.29,0-11.6-3.48a12,12,0,0,1-.29-18.16q4-3.39,12.81-3.39h13.84v-2.66q0-5.62-3.15-8.58t-9.2-2.94a23.41,23.41,0,0,0-8,1.37,20.05,20.05,0,0,0-6.55,3.77l-2.65-4.39a23.6,23.6,0,0,1,8-4.36,31,31,0,0,1,9.78-1.53Q1760.94,659.42,1765.5,663.69Zm-6.64,33.16a13.61,13.61,0,0,0,5.31-6.59v-7.13h-13.68q-11.19,0-11.19,7.79a7.14,7.14,0,0,0,2.9,6c1.94,1.47,4.64,2.2,8.13,2.2A15.48,15.48,0,0,0,1758.86,696.85Z"/><path class="cls-2" d="M1797.87,661.66a21,21,0,0,1,10.15-2.24v5.72l-1.41-.08q-6.88,0-10.77,4.23c-2.6,2.81-3.9,6.77-3.9,11.85v22.22h-5.89V659.75h5.64v8.54A14.22,14.22,0,0,1,1797.87,661.66Z"/><path class="cls-2" d="M1856.18,683.38h-36.47a15.57,15.57,0,0,0,5.22,11,17.35,17.35,0,0,0,11.94,4.19,18.76,18.76,0,0,0,7.46-1.45,16.32,16.32,0,0,0,5.89-4.27l3.31,3.81a18.7,18.7,0,0,1-7.25,5.31,24.63,24.63,0,0,1-9.58,1.82,24.16,24.16,0,0,1-11.89-2.86,20.52,20.52,0,0,1-8.08-7.92,22.5,22.5,0,0,1-2.91-11.44,23.42,23.42,0,0,1,2.78-11.44,20.06,20.06,0,0,1,7.63-7.87,22.4,22.4,0,0,1,21.76,0,20,20,0,0,1,7.54,7.83,23.54,23.54,0,0,1,2.74,11.48Zm-31.62-14.88a15.77,15.77,0,0,0-4.85,10.48h30.92a15.77,15.77,0,0,0-4.85-10.48,16,16,0,0,0-21.22,0Z"/></svg>