<svg id="Main_Layer" data-name="Main Layer" xmlns="http://www.w3.org/2000/svg" xmlns:xlink="http://www.w3.org/1999/xlink" viewBox="0 0 1920 1080"><defs><style>.cls-1{fill:url(#Gradient_Dark_);}.cls-2{fill:#fcfcfc;}</style><linearGradient id="Gradient_Dark_" x1="178.31" y1="572.11" x2="1831.69" y2="572.11" gradientTransform="translate(-45 -97)" gradientUnits="userSpaceOnUse"><stop offset="0" stop-color="#24c178"/><stop offset="1" stop-color="#cfc9ca"/></linearGradient></defs><title>1080p-gradient-inverse-proxeuse</title><path class="cls-1" d="M193.16,575.22a111.37,111.37,0,0,1-43.9-41.05q-15.94-26.2-15.95-59.06t15.95-59.06A111.54,111.54,0,0,1,193.16,375q28-14.85,63-14.84t63,14.84a111.54,111.54,0,0,1,43.9,41.06Q379,442.27,379,475.11t-15.95,59.06a111.37,111.37,0,0,1-43.9,41.05q-28,14.87-63,14.85T193.16,575.22Zm93.33-44.84A56.9,56.9,0,0,0,308,508.12q7.89-14.39,7.9-33t-7.9-33a56.9,56.9,0,0,0-21.48-22.26,62.13,62.13,0,0,0-60.64,0,56.83,56.83,0,0,0-21.48,22.26q-7.89,14.38-7.89,33t7.89,33a56.83,56.83,0,0,0,21.48,22.26,62.13,62.13,0,0,0,60.64,0Z"/><path class="cls-1" d="M599.12,402.93c-7.94-12.28-19.3-21.81-34.09-28.41s-32.07-9.94-52.12-9.94h-101v49.29h97.24q19.29,0,29.07,8.52c6.51,5.68,9.77,13.62,9.77,24s-3.26,18.29-9.77,23.81-16.21,8.43-29.07,8.43H411.91v107H474.4v-57.8h38.51c20.05,0,37.42-3.26,52.12-9.94s26.15-16,34.09-28.24,12-26.65,12-43.27S607.14,415.29,599.12,402.93Z"/><path class="cls-1" d="M819,412.87V364.58H641.47v48.29Zm0,85.54V450.13H641.47v48.28Zm0,87.21V537.34H641.47v48.28Z"/><path class="cls-1" d="M853.74,438.1V585.62H915V512.11Zm51.46-73.52H853.74v29.33L915,467.84l97.57,117.78h51.55V556.3l-61.32-74Zm97.57,0V438.1l61.32,74V364.58Z"/><path class="cls-1" d="M1318.63,364.57V585.65h-62.54V499.43h-85.27v86.22h-62.53V364.57h62.53v83.06h85.27V364.57Z"/><path class="cls-1" d="M1495.48,364.58h-61.57l-97.57,221h63.74l17.37-42.93,18.38-46.12,28.4-70.75,28.41,70.75,18.29,46.12,17.38,42.93h65.07Z"/><path class="cls-1" d="M1636.67,583.44q-25.28-6.63-41.06-17.69l20.53-46.11a132.66,132.66,0,0,0,34.42,15.79,130.72,130.72,0,0,0,38.53,6q36,0,36-18,0-9.46-10.26-14.06t-33-9.63q-24.94-5.36-41.69-11.53a70.12,70.12,0,0,1-28.74-19.73q-12-13.59-12-36.64a63.36,63.36,0,0,1,11.06-36.48q11-16.26,33-25.74t53.85-9.47a190.14,190.14,0,0,1,43,4.89,131.74,131.74,0,0,1,37.27,14.37l-19.27,46.43q-31.58-17.05-61.27-17-18.65,0-27.16,5.52t-8.52,14.37q0,8.85,10.1,13.27t32.53,9.15q25.27,5.38,41.85,11.53a72.36,72.36,0,0,1,28.74,19.59q12.15,13.42,12.16,36.48a62.19,62.19,0,0,1-11.06,36q-11,16.11-33.16,25.74t-53.69,9.63A204.4,204.4,0,0,1,1636.67,583.44Z"/><path class="cls-2" d="M549.62,649.66q6.46,5.45,6.46,15t-6.46,14.92q-6.45,5.4-17.85,5.39h-16v18.79H509.5v-59.5h22.27Q543.17,644.22,549.62,649.66Zm-4.5,25.88q4.67-3.87,4.67-10.92,0-7.23-4.67-11.09t-13.52-3.87H515.79v29.75H531.6Q540.45,679.41,545.12,675.54Z"/><path class="cls-2" d="M574.78,701.21a21.43,21.43,0,0,1-8.16-8.12,24.65,24.65,0,0,1,0-23.46,21.23,21.23,0,0,1,8.16-8.07,24.91,24.91,0,0,1,23.29,0,20.79,20.79,0,0,1,8.12,8.07,24.95,24.95,0,0,1,0,23.46,21,21,0,0,1-8.12,8.12,24.61,24.61,0,0,1-23.29,0ZM595,696.62a15.13,15.13,0,0,0,5.91-6.16,20.57,20.57,0,0,0,0-18.19,15.13,15.13,0,0,0-5.91-6.16,17.89,17.89,0,0,0-17.08,0,15.29,15.29,0,0,0-5.95,6.16,20.14,20.14,0,0,0,0,18.19,15.29,15.29,0,0,0,5.95,6.16,17.89,17.89,0,0,0,17.08,0Z"/><path class="cls-2" d="M685.79,659l-16.91,44.71h-5.7l-14.11-36.64L635,703.72h-5.69L612.44,659h5.78l14,38,14.37-38h5.18l14.28,38,14.2-38Z"/><path class="cls-2" d="M732.54,683.23h-37.4a16,16,0,0,0,5.36,11.27,17.78,17.78,0,0,0,12.24,4.29,19.36,19.36,0,0,0,7.65-1.49,16.67,16.67,0,0,0,6-4.38l3.4,3.91a19.07,19.07,0,0,1-7.43,5.44,25.12,25.12,0,0,1-9.82,1.87,24.77,24.77,0,0,1-12.2-2.93,21.15,21.15,0,0,1-8.29-8.12,23.14,23.14,0,0,1-3-11.73A24,24,0,0,1,692,669.63a20.58,20.58,0,0,1,7.82-8.07,23,23,0,0,1,22.31,0,20.53,20.53,0,0,1,7.73,8,24.18,24.18,0,0,1,2.81,11.77ZM700.12,668a16.2,16.2,0,0,0-5,10.75h31.71a16.24,16.24,0,0,0-5-10.75,16.4,16.4,0,0,0-21.76,0Z"/><path class="cls-2" d="M757.07,661a21.49,21.49,0,0,1,10.41-2.29v5.86l-1.45-.08q-7,0-11,4.33t-4,12.16v22.78h-6V659h5.78v8.75A14.65,14.65,0,0,1,757.07,661Z"/><path class="cls-2" d="M816.86,683.23h-37.4a16,16,0,0,0,5.36,11.27,17.78,17.78,0,0,0,12.24,4.29,19.36,19.36,0,0,0,7.65-1.49,16.67,16.67,0,0,0,6-4.38l3.4,3.91a19.07,19.07,0,0,1-7.43,5.44,25.12,25.12,0,0,1-9.82,1.87,24.77,24.77,0,0,1-12.2-2.93,21.15,21.15,0,0,1-8.29-8.12,23.14,23.14,0,0,1-3-11.73,24,24,0,0,1,2.85-11.73,20.58,20.58,0,0,1,7.82-8.07,23,23,0,0,1,22.31,0,20.53,20.53,0,0,1,7.73,8A24.18,24.18,0,0,1,817,681.36ZM784.44,668a16.2,16.2,0,0,0-5,10.75h31.71a16.24,16.24,0,0,0-5-10.75,16.4,16.4,0,0,0-21.76,0Z"/><path class="cls-2" d="M870.07,640.65v63.07h-5.78v-8.84a18.37,18.37,0,0,1-7.18,6.88A21,21,0,0,1,847,704.14a22.64,22.64,0,0,1-11.39-2.89,20.53,20.53,0,0,1-8-8.07,25.6,25.6,0,0,1,0-23.63,20.3,20.3,0,0,1,8-8A22.93,22.93,0,0,1,847,658.67a21.15,21.15,0,0,1,9.81,2.25,18.61,18.61,0,0,1,7.19,6.59V640.65Zm-14.07,56a15.29,15.29,0,0,0,6-6.16,20.14,20.14,0,0,0,0-18.19,15.29,15.29,0,0,0-6-6.16,16.64,16.64,0,0,0-8.45-2.17,16.85,16.85,0,0,0-8.55,2.17,15.42,15.42,0,0,0-6,6.16,20.23,20.23,0,0,0,0,18.19,15.42,15.42,0,0,0,6,6.16,16.85,16.85,0,0,0,8.55,2.17A16.64,16.64,0,0,0,856,696.62Z"/><path class="cls-2" d="M943.6,661.52a20.37,20.37,0,0,1,8,8,25.6,25.6,0,0,1,0,23.63,20.6,20.6,0,0,1-8,8.07,22.67,22.67,0,0,1-11.39,2.89,21.07,21.07,0,0,1-10.08-2.38,18.37,18.37,0,0,1-7.18-6.88v8.84h-5.78V640.65h6v26.86a18.58,18.58,0,0,1,7.18-6.59,21.16,21.16,0,0,1,9.82-2.25A23,23,0,0,1,943.6,661.52Zm-3.32,35.1a15.26,15.26,0,0,0,6-6.16,20.14,20.14,0,0,0,0-18.19,15.26,15.26,0,0,0-6-6.16,17.81,17.81,0,0,0-17,0,15.35,15.35,0,0,0-6,6.16,20.14,20.14,0,0,0,0,18.19,15.35,15.35,0,0,0,6,6.16,17.81,17.81,0,0,0,17,0Z"/><path class="cls-2" d="M1003.1,659l-22.36,50.06q-2.72,6.3-6.29,8.93a14,14,0,0,1-8.58,2.63,17.53,17.53,0,0,1-6-1,13.06,13.06,0,0,1-4.84-3.06l2.8-4.5a11.17,11.17,0,0,0,8.16,3.4,8.25,8.25,0,0,0,5.23-1.7,15.58,15.58,0,0,0,4-5.78l1.95-4.34L957.2,659h6.29l16.83,38,16.83-38Z"/><path class="cls-2" d="M1075.26,649.66q6.45,5.45,6.46,15t-6.46,14.92q-6.46,5.4-17.85,5.39h-16v18.79h-6.29v-59.5h22.27Q1068.8,644.22,1075.26,649.66Zm-4.51,25.88q4.68-3.87,4.68-10.92,0-7.23-4.68-11.09t-13.51-3.87h-15.81v29.75h15.81Q1066.08,679.41,1070.75,675.54Z"/><path class="cls-2" d="M1105.05,661a21.54,21.54,0,0,1,10.41-2.29v5.86l-1.44-.08q-7.07,0-11,4.33t-4,12.16v22.78h-6V659h5.78v8.75A14.63,14.63,0,0,1,1105.05,661Z"/><path class="cls-2" d="M1132.55,701.21a21.29,21.29,0,0,1-8.16-8.12,24.58,24.58,0,0,1,0-23.46,21.09,21.09,0,0,1,8.16-8.07,24.91,24.91,0,0,1,23.29,0,20.92,20.92,0,0,1,8.12,8.07,24.95,24.95,0,0,1,0,23.46,21.12,21.12,0,0,1-8.12,8.12,24.61,24.61,0,0,1-23.29,0Zm20.19-4.59a15,15,0,0,0,5.9-6.16,20.48,20.48,0,0,0,0-18.19,15,15,0,0,0-5.9-6.16,17.91,17.91,0,0,0-17.09,0,15.42,15.42,0,0,0-6,6.16,20.14,20.14,0,0,0,0,18.19,15.42,15.42,0,0,0,6,6.16,17.91,17.91,0,0,0,17.09,0Z"/><path class="cls-2" d="M1206.07,703.72,1191.88,685l-14.28,18.7h-6.8l17.68-23L1171.65,659h6.8l13.43,17.51L1205.31,659h6.63l-16.83,21.76,17.85,23Z"/><path class="cls-2" d="M1260.3,683.23h-37.4a16,16,0,0,0,5.36,11.27,17.78,17.78,0,0,0,12.24,4.29,19.36,19.36,0,0,0,7.65-1.49,16.67,16.67,0,0,0,6-4.38l3.4,3.91a19.07,19.07,0,0,1-7.43,5.44,25.12,25.12,0,0,1-9.82,1.87,24.77,24.77,0,0,1-12.2-2.93,21.15,21.15,0,0,1-8.29-8.12,23.14,23.14,0,0,1-3-11.73,24,24,0,0,1,2.85-11.73,20.58,20.58,0,0,1,7.82-8.07,23,23,0,0,1,22.31,0,20.53,20.53,0,0,1,7.73,8,24.18,24.18,0,0,1,2.81,11.77ZM1227.88,668a16.2,16.2,0,0,0-5,10.75h31.71a16.24,16.24,0,0,0-5-10.75,16.4,16.4,0,0,0-21.76,0Z"/><path class="cls-2" d="M1313,659v44.71h-5.78v-8.16a16.52,16.52,0,0,1-6.54,6.33,19.72,19.72,0,0,1-9.52,2.25q-8.76,0-13.81-4.88t-5.06-14.33V659h6v25.33q0,7,3.49,10.71t9.94,3.65q7.07,0,11.14-4.29t4.08-11.94V659Z"/><path class="cls-2" d="M1331.49,702.57a22.34,22.34,0,0,1-7.78-4l2.72-4.76a22.82,22.82,0,0,0,7.06,3.61,27.87,27.87,0,0,0,8.84,1.4c4.08,0,7.09-.63,9.05-1.91a6.08,6.08,0,0,0,2.93-5.4,4.85,4.85,0,0,0-1.61-3.86,10.69,10.69,0,0,0-4.08-2.13,58.36,58.36,0,0,0-6.55-1.4,74.48,74.48,0,0,1-8.75-2.08,12.93,12.93,0,0,1-5.66-3.62,10,10,0,0,1-2.33-7.05,11,11,0,0,1,4.67-9.18q4.68-3.57,13-3.57a33.54,33.54,0,0,1,8.67,1.15,23.9,23.9,0,0,1,7.14,3l-2.64,4.85a22.55,22.55,0,0,0-13.17-3.83c-3.86,0-6.76.68-8.72,2a6.27,6.27,0,0,0-2.93,5.36,5.27,5.27,0,0,0,1.66,4.08,10.15,10.15,0,0,0,4.12,2.25,66.66,66.66,0,0,0,6.8,1.49,78.73,78.73,0,0,1,8.59,2,12.63,12.63,0,0,1,5.52,3.48,9.6,9.6,0,0,1,2.3,6.8,10.81,10.81,0,0,1-4.89,9.31q-4.89,3.45-13.56,3.44A34.22,34.22,0,0,1,1331.49,702.57Z"/><path class="cls-2" d="M1410.41,683.23H1373a16,16,0,0,0,5.36,11.27,17.78,17.78,0,0,0,12.24,4.29,19.36,19.36,0,0,0,7.65-1.49,16.67,16.67,0,0,0,6-4.38l3.4,3.91a19,19,0,0,1-7.44,5.44,25,25,0,0,1-9.81,1.87,24.77,24.77,0,0,1-12.2-2.93,21.09,21.09,0,0,1-8.29-8.12,23.14,23.14,0,0,1-3-11.73,24,24,0,0,1,2.84-11.73,20.72,20.72,0,0,1,7.82-8.07,21.81,21.81,0,0,1,11.18-2.89,21.59,21.59,0,0,1,11.14,2.89,20.53,20.53,0,0,1,7.73,8,24.18,24.18,0,0,1,2.81,11.77ZM1378,668a16.19,16.19,0,0,0-5,10.75h31.71a16.2,16.2,0,0,0-5-10.75,16.4,16.4,0,0,0-21.76,0Z"/></svg>