<svg id="Main_Layer" data-name="Main Layer" xmlns="http://www.w3.org/2000/svg" viewBox="0 0 1920 1080"><defs><style>.cls-1{fill:#fcfcfc;}</style></defs><title>1080p-white-noslogan</title><path class="cls-1" d="M193.16,640.11a111.37,111.37,0,0,1-43.9-41.05q-15.94-26.2-15.95-59.06t15.95-59.06a111.54,111.54,0,0,1,43.9-41.06q28-14.85,63-14.84t63,14.84a111.54,111.54,0,0,1,43.9,41.06Q379,507.16,379,540t-15.95,59.06a111.37,111.37,0,0,1-43.9,41.05q-28,14.86-63,14.85T193.16,640.11Zm93.33-44.84A56.9,56.9,0,0,0,308,573q7.89-14.38,7.9-33T308,507a56.9,56.9,0,0,0-21.48-22.26,62.13,62.13,0,0,0-60.64,0A56.83,56.83,0,0,0,204.37,507q-7.89,14.38-7.89,33t7.89,33a56.83,56.83,0,0,0,21.48,22.26,62.13,62.13,0,0,0,60.64,0Z"/><path class="cls-1" d="M599.12,467.82c-7.94-12.28-19.3-21.81-34.09-28.41s-32.07-9.94-52.12-9.94h-101v49.29h97.24q19.29,0,29.07,8.52c6.51,5.68,9.77,13.62,9.77,24s-3.26,18.29-9.77,23.8S522,543.5,509.15,543.5H411.91v107H474.4v-57.8h38.51c20.05,0,37.42-3.26,52.12-9.94s26.15-16,34.09-28.24,12-26.65,12-43.27S607.14,480.18,599.12,467.82Z"/><path class="cls-1" d="M819,477.76V429.47H641.47v48.29Zm0,85.54V515H641.47V563.3Zm0,87.21V602.23H641.47v48.28Z"/><path class="cls-1" d="M853.74,503V650.51H915V577Zm51.46-73.52H853.74V458.8L915,532.73l97.57,117.78h51.55V621.19l-61.32-74Zm97.57,0V503l61.32,74V429.47Z"/><path class="cls-1" d="M1318.63,429.46V650.54h-62.54V564.32h-85.27v86.22h-62.53V429.46h62.53v83.06h85.27V429.46Z"/><path class="cls-1" d="M1495.48,429.47h-61.57l-97.57,221h63.74l17.37-42.93,18.38-46.12,28.4-70.75,28.41,70.75,18.29,46.12,17.38,42.93h65.07Z"/><path class="cls-1" d="M1636.67,648.33q-25.28-6.63-41.06-17.69l20.53-46.11a132.66,132.66,0,0,0,34.42,15.79,130.72,130.72,0,0,0,38.53,6q36,0,36-18,0-9.47-10.26-14.06t-33-9.63q-24.94-5.36-41.69-11.53a70.12,70.12,0,0,1-28.74-19.73q-12-13.59-12-36.64a63.36,63.36,0,0,1,11.06-36.48q11-16.26,33-25.74t53.85-9.47a190.14,190.14,0,0,1,43,4.89,131.74,131.74,0,0,1,37.27,14.37l-19.27,46.43q-31.58-17.06-61.27-17.05-18.65,0-27.16,5.52t-8.52,14.37q0,8.85,10.1,13.27t32.53,9.15q25.27,5.38,41.85,11.53a72.36,72.36,0,0,1,28.74,19.59q12.15,13.41,12.16,36.48a62.19,62.19,0,0,1-11.06,36q-11,16.11-33.16,25.74T1688.78,655A204.4,204.4,0,0,1,1636.67,648.33Z"/></svg>