<svg id="Main_Layer" data-name="Main Layer" xmlns="http://www.w3.org/2000/svg" xmlns:xlink="http://www.w3.org/1999/xlink" viewBox="0 0 1800 360"><defs><style>.cls-1{fill:url(#linear-gradient);}</style><linearGradient id="linear-gradient" x1="118.31" y1="277" x2="1771.69" y2="277" gradientTransform="translate(-45 -97)" gradientUnits="userSpaceOnUse"><stop offset="0" stop-color="#24c178"/><stop offset="1" stop-color="#231f20"/></linearGradient></defs><title>gradient-noslogan</title><path class="cls-1" d="M133.16,280.11a111.37,111.37,0,0,1-43.9-41.05q-15.95-26.2-16-59.06t16-59.06a111.54,111.54,0,0,1,43.9-41.06q28-14.85,63-14.84t63,14.84a111.54,111.54,0,0,1,43.9,41.06Q319,147.16,319,180t-15.95,59.06a111.37,111.37,0,0,1-43.9,41.05q-28,14.86-63,14.85T133.16,280.11Zm93.33-44.84A56.9,56.9,0,0,0,248,213q7.89-14.38,7.9-33T248,147a56.9,56.9,0,0,0-21.48-22.26,62.13,62.13,0,0,0-60.64,0A56.83,56.83,0,0,0,144.37,147q-7.89,14.38-7.89,33t7.89,33a56.83,56.83,0,0,0,21.48,22.26,62.13,62.13,0,0,0,60.64,0Z"/><path class="cls-1" d="M539.12,107.82C531.18,95.54,519.82,86,505,79.41S473,69.47,452.91,69.47h-101v49.29h97.24q19.29,0,29.07,8.52c6.51,5.68,9.77,13.62,9.77,24s-3.26,18.29-9.77,23.8S462,183.5,449.15,183.5H351.91v107H414.4v-57.8h38.51c20,0,37.42-3.26,52.12-9.94s26.15-16,34.09-28.24,12-26.65,12-43.27S547.14,120.18,539.12,107.82Z"/><path class="cls-1" d="M759,117.76V69.47H581.47v48.29Zm0,85.54V155H581.47V203.3Zm0,87.21V242.23H581.47v48.28Z"/><path class="cls-1" d="M793.74,143V290.51H855V217ZM845.2,69.47H793.74V98.8L855,172.73l97.57,117.78h51.55V261.19l-61.32-74Zm97.57,0V143l61.32,74V69.47Z"/><path class="cls-1" d="M1258.63,69.46V290.54h-62.54V204.32h-85.27v86.22h-62.53V69.46h62.53v83.06h85.27V69.46Z"/><path class="cls-1" d="M1435.48,69.47h-61.57l-97.57,221h63.74l17.37-42.93,18.38-46.12,28.4-70.75,28.41,70.75,18.29,46.12,17.38,42.93h65.07Z"/><path class="cls-1" d="M1576.67,288.33q-25.28-6.63-41.06-17.69l20.53-46.11a132.66,132.66,0,0,0,34.42,15.79,130.72,130.72,0,0,0,38.53,6q36,0,36-18,0-9.47-10.26-14.06t-33-9.63q-24.94-5.35-41.69-11.53a70.12,70.12,0,0,1-28.74-19.73q-12-13.59-12-36.64a63.36,63.36,0,0,1,11.06-36.48q11-16.26,33-25.74T1637.31,65a190.14,190.14,0,0,1,43,4.89,131.74,131.74,0,0,1,37.27,14.37l-19.27,46.43q-31.58-17.05-61.27-17-18.65,0-27.16,5.52t-8.52,14.37q0,8.85,10.1,13.27t32.53,9.15q25.27,5.38,41.85,11.53a72.36,72.36,0,0,1,28.74,19.59q12.15,13.41,12.16,36.48a62.19,62.19,0,0,1-11.06,36q-11,16.11-33.16,25.74T1628.78,295A204.4,204.4,0,0,1,1576.67,288.33Z"/></svg>