<svg id="Main_Layer" data-name="Main Layer" xmlns="http://www.w3.org/2000/svg" xmlns:xlink="http://www.w3.org/1999/xlink" viewBox="0 0 1800 360"><defs><style>.cls-1{fill:url(#linear-gradient);}.cls-2{fill:#231f20;}</style><linearGradient id="linear-gradient" x1="118.31" y1="211.72" x2="1771.69" y2="211.72" gradientTransform="translate(-45 -97)" gradientUnits="userSpaceOnUse"><stop offset="0" stop-color="#24c178"/><stop offset="1" stop-color="#231f20"/></linearGradient></defs><title>gradient-proxeuse</title><path class="cls-1" d="M133.16,214.83a111.37,111.37,0,0,1-43.9-41.05q-15.95-26.21-16-59.06t16-59.06a111.54,111.54,0,0,1,43.9-41.06q28-14.85,63-14.84t63,14.84a111.54,111.54,0,0,1,43.9,41.06Q319,81.88,319,114.72t-15.95,59.06a111.37,111.37,0,0,1-43.9,41.05q-28,14.86-63,14.85T133.16,214.83ZM226.49,170A56.9,56.9,0,0,0,248,147.73q7.89-14.39,7.9-33t-7.9-33a56.83,56.83,0,0,0-21.48-22.26,62.13,62.13,0,0,0-60.64,0,56.76,56.76,0,0,0-21.48,22.26q-7.89,14.39-7.89,33t7.89,33A56.83,56.83,0,0,0,165.85,170a62.13,62.13,0,0,0,60.64,0Z"/><path class="cls-1" d="M539.12,42.54c-7.94-12.28-19.3-21.81-34.09-28.41S473,4.19,452.91,4.19h-101V53.48h97.24q19.29,0,29.07,8.52c6.51,5.68,9.77,13.62,9.77,24s-3.26,18.29-9.77,23.8-16.21,8.44-29.07,8.44H351.91v107H414.4v-57.8h38.51c20,0,37.42-3.26,52.12-10s26.15-16,34.09-28.23,12-26.65,12-43.27S547.14,54.9,539.12,42.54Z"/><path class="cls-1" d="M759,52.48V4.19H581.47V52.48ZM759,138V89.74H581.47V138Zm0,87.21V177H581.47v48.28Z"/><path class="cls-1" d="M793.74,77.71V225.23H855V151.72ZM845.2,4.19H793.74V33.51L855,107.45l97.57,117.78h51.55V195.91l-61.32-74Zm97.57,0V77.71l61.32,74V4.19Z"/><path class="cls-1" d="M1258.63,4.18V225.26h-62.54V139h-85.27v86.22h-62.53V4.18h62.53V87.24h85.27V4.18Z"/><path class="cls-1" d="M1435.48,4.19h-61.57l-97.57,221h63.74l17.37-42.94,18.38-46.11,28.4-70.75,28.41,70.75,18.29,46.11,17.38,42.94h65.07Z"/><path class="cls-1" d="M1576.67,223.05q-25.28-6.63-41.06-17.69l20.53-46.11A132.66,132.66,0,0,0,1590.56,175a131.05,131.05,0,0,0,38.53,6q36,0,36-18,0-9.48-10.26-14.06t-33-9.63q-24.94-5.37-41.69-11.53a70.12,70.12,0,0,1-28.74-19.73q-12-13.59-12-36.64A63.36,63.36,0,0,1,1550.46,35q11-16.27,33-25.74t53.85-9.47a190.14,190.14,0,0,1,43,4.89A131.45,131.45,0,0,1,1717.53,19l-19.27,46.42q-31.58-17-61.27-17-18.65,0-27.16,5.53t-8.52,14.37q0,8.85,10.1,13.27t32.53,9.15q25.27,5.39,41.85,11.53a72.44,72.44,0,0,1,28.74,19.58q12.15,13.43,12.16,36.49a62.19,62.19,0,0,1-11.06,36q-11,16.09-33.16,25.74t-53.69,9.63A204.4,204.4,0,0,1,1576.67,223.05Z"/><path class="cls-2" d="M489.62,289.27q6.47,5.44,6.46,15t-6.46,14.92q-6.45,5.39-17.85,5.39h-16v18.79H449.5v-59.5h22.27Q483.17,283.83,489.62,289.27Zm-4.5,25.88q4.67-3.87,4.67-10.92,0-7.23-4.67-11.09t-13.52-3.87H455.79V319H471.6Q480.45,319,485.12,315.15Z"/><path class="cls-2" d="M514.78,340.82a21.43,21.43,0,0,1-8.16-8.12,24.65,24.65,0,0,1,0-23.46,21.23,21.23,0,0,1,8.16-8.07,24.91,24.91,0,0,1,23.29,0,20.79,20.79,0,0,1,8.12,8.07,24.95,24.95,0,0,1,0,23.46,21,21,0,0,1-8.12,8.12,24.61,24.61,0,0,1-23.29,0ZM535,336.23a15.13,15.13,0,0,0,5.91-6.16,20.57,20.57,0,0,0,0-18.19,15.13,15.13,0,0,0-5.91-6.16,17.89,17.89,0,0,0-17.08,0,15.29,15.29,0,0,0-5.95,6.16,20.14,20.14,0,0,0,0,18.19,15.29,15.29,0,0,0,5.95,6.16,17.89,17.89,0,0,0,17.08,0Z"/><path class="cls-2" d="M625.79,298.62l-16.91,44.71h-5.7l-14.11-36.64L575,343.33h-5.69l-16.83-44.71h5.78l14,38,14.37-38h5.18l14.28,38,14.2-38Z"/><path class="cls-2" d="M672.54,322.84h-37.4a16,16,0,0,0,5.36,11.27,17.78,17.78,0,0,0,12.24,4.29,19.36,19.36,0,0,0,7.65-1.49,16.67,16.67,0,0,0,6-4.38l3.4,3.91a19.07,19.07,0,0,1-7.43,5.44,25.12,25.12,0,0,1-9.82,1.87,24.77,24.77,0,0,1-12.2-2.93,21.15,21.15,0,0,1-8.29-8.12,23.14,23.14,0,0,1-3-11.73A24,24,0,0,1,632,309.24a20.58,20.58,0,0,1,7.82-8.07,23,23,0,0,1,22.31,0,20.53,20.53,0,0,1,7.73,8A24.18,24.18,0,0,1,672.63,321Zm-32.42-15.25a16.18,16.18,0,0,0-5,10.75h31.71a16.22,16.22,0,0,0-5-10.75,16.4,16.4,0,0,0-21.76,0Z"/><path class="cls-2" d="M697.07,300.57a21.49,21.49,0,0,1,10.41-2.29v5.86l-1.45-.08q-7,0-11,4.33t-4,12.16v22.78h-6V298.62h5.78v8.75A14.65,14.65,0,0,1,697.07,300.57Z"/><path class="cls-2" d="M756.86,322.84h-37.4a16,16,0,0,0,5.36,11.27,17.78,17.78,0,0,0,12.24,4.29,19.36,19.36,0,0,0,7.65-1.49,16.67,16.67,0,0,0,6-4.38l3.4,3.91a19.07,19.07,0,0,1-7.43,5.44,25.12,25.12,0,0,1-9.82,1.87,24.77,24.77,0,0,1-12.2-2.93,21.15,21.15,0,0,1-8.29-8.12,23.14,23.14,0,0,1-3-11.73,24,24,0,0,1,2.85-11.73,20.58,20.58,0,0,1,7.82-8.07,23,23,0,0,1,22.31,0,20.53,20.53,0,0,1,7.73,8A24.18,24.18,0,0,1,757,321Zm-32.42-15.25a16.18,16.18,0,0,0-5,10.75h31.71a16.22,16.22,0,0,0-5-10.75,16.4,16.4,0,0,0-21.76,0Z"/><path class="cls-2" d="M810.07,280.26v63.07h-5.78v-8.84a18.37,18.37,0,0,1-7.18,6.88A21,21,0,0,1,787,343.75a22.64,22.64,0,0,1-11.39-2.89,20.53,20.53,0,0,1-8-8.07,25.6,25.6,0,0,1,0-23.63,20.24,20.24,0,0,1,8-8A22.93,22.93,0,0,1,787,298.28a21.15,21.15,0,0,1,9.81,2.25,18.61,18.61,0,0,1,7.19,6.59V280.26Zm-14.07,56a15.29,15.29,0,0,0,6-6.16,20.14,20.14,0,0,0,0-18.19,15.29,15.29,0,0,0-6-6.16,16.64,16.64,0,0,0-8.45-2.17,16.85,16.85,0,0,0-8.55,2.17,15.42,15.42,0,0,0-6,6.16,20.23,20.23,0,0,0,0,18.19,15.42,15.42,0,0,0,6,6.16,16.85,16.85,0,0,0,8.55,2.17A16.64,16.64,0,0,0,796,336.23Z"/><path class="cls-2" d="M883.6,301.13a20.3,20.3,0,0,1,8,8,25.6,25.6,0,0,1,0,23.63,20.6,20.6,0,0,1-8,8.07,22.67,22.67,0,0,1-11.39,2.89,21.07,21.07,0,0,1-10.08-2.38,18.37,18.37,0,0,1-7.18-6.88v8.84h-5.78V280.26h6v26.86a18.58,18.58,0,0,1,7.18-6.59,21.16,21.16,0,0,1,9.82-2.25A23,23,0,0,1,883.6,301.13Zm-3.32,35.1a15.26,15.26,0,0,0,6-6.16,20.14,20.14,0,0,0,0-18.19,15.26,15.26,0,0,0-6-6.16,17.81,17.81,0,0,0-17,0,15.35,15.35,0,0,0-6,6.16,20.14,20.14,0,0,0,0,18.19,15.35,15.35,0,0,0,6,6.16,17.81,17.81,0,0,0,17,0Z"/><path class="cls-2" d="M943.1,298.62l-22.36,50.06q-2.72,6.3-6.29,8.93a14.09,14.09,0,0,1-8.58,2.63,17.53,17.53,0,0,1-6-1,13.06,13.06,0,0,1-4.84-3.06l2.8-4.5a11.17,11.17,0,0,0,8.16,3.4,8.25,8.25,0,0,0,5.23-1.7,15.58,15.58,0,0,0,4-5.78l1.95-4.34-20-44.62h6.29l16.83,38,16.83-38Z"/><path class="cls-2" d="M1015.26,289.27q6.45,5.44,6.46,15t-6.46,14.92q-6.46,5.39-17.85,5.39h-16v18.79h-6.29v-59.5h22.27Q1008.8,283.83,1015.26,289.27Zm-4.51,25.88q4.68-3.87,4.68-10.92,0-7.23-4.68-11.09t-13.51-3.87H981.43V319h15.81Q1006.08,319,1010.75,315.15Z"/><path class="cls-2" d="M1045.05,300.57a21.54,21.54,0,0,1,10.41-2.29v5.86l-1.44-.08q-7.07,0-11,4.33t-4,12.16v22.78h-6V298.62h5.78v8.75A14.63,14.63,0,0,1,1045.05,300.57Z"/><path class="cls-2" d="M1072.55,340.82a21.29,21.29,0,0,1-8.16-8.12,24.58,24.58,0,0,1,0-23.46,21.09,21.09,0,0,1,8.16-8.07,24.91,24.91,0,0,1,23.29,0,20.92,20.92,0,0,1,8.12,8.07,24.95,24.95,0,0,1,0,23.46,21.12,21.12,0,0,1-8.12,8.12,24.61,24.61,0,0,1-23.29,0Zm20.19-4.59a15,15,0,0,0,5.9-6.16,20.48,20.48,0,0,0,0-18.19,15,15,0,0,0-5.9-6.16,17.91,17.91,0,0,0-17.09,0,15.42,15.42,0,0,0-6,6.16,20.14,20.14,0,0,0,0,18.19,15.42,15.42,0,0,0,6,6.16,17.91,17.91,0,0,0,17.09,0Z"/><path class="cls-2" d="M1146.07,343.33l-14.19-18.7-14.28,18.7h-6.8l17.68-22.95-16.83-21.76h6.8l13.43,17.51,13.43-17.51h6.63l-16.83,21.76L1153,343.33Z"/><path class="cls-2" d="M1200.3,322.84h-37.4a16,16,0,0,0,5.36,11.27,17.78,17.78,0,0,0,12.24,4.29,19.36,19.36,0,0,0,7.65-1.49,16.67,16.67,0,0,0,6-4.38l3.4,3.91a19.07,19.07,0,0,1-7.43,5.44,25.12,25.12,0,0,1-9.82,1.87,24.77,24.77,0,0,1-12.2-2.93,21.15,21.15,0,0,1-8.29-8.12,23.14,23.14,0,0,1-3-11.73,24,24,0,0,1,2.85-11.73,20.58,20.58,0,0,1,7.82-8.07,23,23,0,0,1,22.31,0,20.53,20.53,0,0,1,7.73,8,24.18,24.18,0,0,1,2.81,11.77Zm-32.42-15.25a16.18,16.18,0,0,0-5,10.75h31.71a16.22,16.22,0,0,0-5-10.75,16.4,16.4,0,0,0-21.76,0Z"/><path class="cls-2" d="M1253,298.62v44.71h-5.78v-8.16a16.52,16.52,0,0,1-6.54,6.33,19.72,19.72,0,0,1-9.52,2.25q-8.76,0-13.81-4.88t-5.06-14.33V298.62h6V324q0,7.05,3.49,10.71t9.94,3.65q7.07,0,11.14-4.29t4.08-11.94V298.62Z"/><path class="cls-2" d="M1271.49,342.18a22.34,22.34,0,0,1-7.78-3.95l2.72-4.76a22.82,22.82,0,0,0,7.06,3.61,27.87,27.87,0,0,0,8.84,1.4c4.08,0,7.09-.63,9.05-1.91a6.08,6.08,0,0,0,2.93-5.4,4.85,4.85,0,0,0-1.61-3.86,10.69,10.69,0,0,0-4.08-2.13,58.36,58.36,0,0,0-6.55-1.4,76.56,76.56,0,0,1-8.75-2.08,12.93,12.93,0,0,1-5.66-3.62,10,10,0,0,1-2.33-7.05,11,11,0,0,1,4.67-9.18q4.68-3.57,13-3.57a33.54,33.54,0,0,1,8.67,1.15,23.9,23.9,0,0,1,7.14,3l-2.64,4.85a22.55,22.55,0,0,0-13.17-3.83c-3.86,0-6.76.68-8.72,2a6.27,6.27,0,0,0-2.93,5.36,5.27,5.27,0,0,0,1.66,4.08,10.15,10.15,0,0,0,4.12,2.25,66.66,66.66,0,0,0,6.8,1.49,78.73,78.73,0,0,1,8.59,2,12.63,12.63,0,0,1,5.52,3.48,9.6,9.6,0,0,1,2.3,6.8,10.81,10.81,0,0,1-4.89,9.31q-4.89,3.45-13.56,3.44A34.22,34.22,0,0,1,1271.49,342.18Z"/><path class="cls-2" d="M1350.41,322.84H1313a16,16,0,0,0,5.36,11.27,17.78,17.78,0,0,0,12.24,4.29,19.36,19.36,0,0,0,7.65-1.49,16.67,16.67,0,0,0,6-4.38l3.4,3.91a19,19,0,0,1-7.44,5.44,25,25,0,0,1-9.81,1.87,24.77,24.77,0,0,1-12.2-2.93,21.09,21.09,0,0,1-8.29-8.12,23.14,23.14,0,0,1-3-11.73,24,24,0,0,1,2.84-11.73,20.72,20.72,0,0,1,7.82-8.07,21.81,21.81,0,0,1,11.18-2.89,21.59,21.59,0,0,1,11.14,2.89,20.53,20.53,0,0,1,7.73,8A24.18,24.18,0,0,1,1350.5,321ZM1318,307.59a16.17,16.17,0,0,0-5,10.75h31.71a16.18,16.18,0,0,0-5-10.75,16.4,16.4,0,0,0-21.76,0Z"/></svg>